<?xml version="1.0" standalone="no"?>
<!DOCTYPE svg PUBLIC "-//W3C//DTD SVG 20010904//EN"
 "http://www.w3.org/TR/2001/REC-SVG-20010904/DTD/svg10.dtd">
<svg version="1.0" xmlns="http://www.w3.org/2000/svg"
 width="320.000000pt" height="320.000000pt" viewBox="0 0 320.000000 320.000000"
 preserveAspectRatio="xMidYMid meet">
<metadata>
Created by potrace 1.11, written by Peter Selinger 2001-2013
</metadata>
<g transform="translate(0.000000,320.000000) scale(0.100000,-0.100000)"
fill="#000000" stroke="none">
<path d="M1365 3189 c-532 -82 -981 -413 -1211 -893 -61 -127 -93 -222 -126
-368 -20 -91 -23 -130 -23 -328 0 -242 11 -324 71 -508 84 -258 269 -535 475
-708 216 -182 441 -293 721 -356 91 -20 130 -23 328 -23 198 0 237 3 328 23
425 95 768 326 1005 676 111 165 191 356 239 568 20 91 23 130 23 328 0 242
-11 324 -71 508 -84 258 -269 535 -475 708 -157 132 -356 247 -529 304 -171
57 -264 72 -485 75 -115 2 -237 0 -270 -6z m330 -593 c38 -29 60 -84 50 -124
-3 -15 -29 -67 -57 -115 -28 -49 -49 -89 -47 -91 2 -1 69 -19 148 -40 227 -58
372 -135 502 -267 116 -118 186 -239 235 -408 29 -99 43 -263 26 -284 -10 -12
-163 -15 -885 -21 -481 -4 -902 -4 -936 0 l-61 7 0 66 c0 242 109 482 299 664
126 120 271 193 492 247 67 16 124 31 126 33 2 2 -22 53 -53 112 -61 118 -64
142 -23 193 50 66 121 76 184 28z m1000 -1522 c39 -18 49 -38 35 -64 -28 -53
29 -50 -1112 -50 -730 0 -1064 3 -1081 11 -12 6 -29 20 -36 31 -11 18 -10 24
12 46 14 14 43 28 64 32 21 4 499 8 1061 9 913 1 1028 -1 1057 -15z"/>
<path d="M1790 2048 c0 -3 68 -52 152 -109 83 -57 175 -127 202 -154 55 -54
101 -138 137 -248 17 -52 25 -65 31 -53 12 22 -7 151 -32 220 -70 186 -248
333 -417 344 -40 3 -73 2 -73 0z"/>
</g>
</svg>
