<?xml version="1.0" encoding="utf-8"?>
<!-- Generator: Adobe Illustrator 19.2.0, SVG Export Plug-In . SVG Version: 6.00 Build 0)  -->
<svg version="1.1" id="Layer_1" xmlns="http://www.w3.org/2000/svg" xmlns:xlink="http://www.w3.org/1999/xlink" x="0px" y="0px"
	 viewBox="0 0 79.3 63.3" style="enable-background:new 0 0 79.3 63.3;" xml:space="preserve">
<style type="text/css">
	.st0{fill:none;}
</style>
<g id="dish">
	<g>
		<path class="st0" d="M8.1,52.8c22.2-0.1,44.4-0.2,66.5-0.3c0.2,0,0.4-0.3,0.6-0.4c0.2-0.2,0.3-0.4,0.5-0.5
			c0.6-16.9-10.5-31.7-26.9-35.8c-2.3-0.6-4.7-1.2-8-2.1c1.4-2.4,2.3-4,3.2-5.6c1.3-2.5,1.2-4.8-1-6.8c-2-1.8-4.8-1.8-6.8,0
			c-2.1,1.9-2.5,4.2-1,6.7c1,1.6,1.8,3.3,3.2,6c-10.8,2-19.3,5.2-25.7,12.5c-6.4,7.4-9.9,15.8-9,25.9C5.7,52.5,6.9,52.8,8.1,52.8z
			 M66,43.9c-1.5-5-3.1-10-7.3-13.3c-3.8-3-7.9-5.6-12.2-8.6C56.7,21.2,67,32.5,66,43.9z"/>
		<path class="st0" d="M77.7,58.8c-0.8-0.3-1.8-0.3-2.7-0.3c-23.1,0-46.2,0-69.3,0c-2,0-4.2-0.2-5.7,2.3c1.2,3,3.5,2.4,5.5,2.4
			c22.9,0,45.8,0,68.6,0c1.2,0,2.4,0.2,3.4-0.3c0.8-0.4,1.6-1.5,1.8-2.5C79.5,60.1,78.4,59.1,77.7,58.8z"/>
	</g>
</g>
</svg>
